<svg width="20" height="20" viewBox="0 0 20 20" fill="none" xmlns="http://www.w3.org/2000/svg">
<path d="M7.43528 18.0108L9.31858 16.4265C9.60147 16.184 10.0703 16.184 10.3532 16.4265L12.2365 18.0108C12.6729 18.229 13.2064 18.0108 13.3681 17.5419L13.7237 16.4669C13.8126 16.2083 13.7237 15.8284 13.5297 15.6344L11.6949 13.7915C11.5575 13.6622 11.4524 13.4035 11.4524 13.2176V10.914C11.4524 10.5746 11.703 10.4129 12.0182 10.5422L15.9869 12.2558C16.6093 12.5225 17.1185 12.1911 17.1185 11.5122V10.4695C17.1185 9.92793 16.7144 9.30555 16.2132 9.0954L11.6949 7.14744C11.5656 7.09086 11.4524 6.92112 11.4524 6.77563V4.35078C11.4524 3.591 10.8947 2.6938 10.2158 2.34624C9.97328 2.225 9.69039 2.225 9.4479 2.34624C8.76894 2.6938 8.21123 3.59908 8.21123 4.35886V6.78371C8.21123 6.9292 8.09807 7.09894 7.96874 7.15552L3.45853 9.10348C2.95739 9.30555 2.55325 9.92793 2.55325 10.4695V11.5122C2.55325 12.1911 3.06247 12.5225 3.68485 12.2558L7.65351 10.5422C7.96066 10.4048 8.21931 10.5746 8.21931 10.914V13.2176C8.21931 13.4035 8.11423 13.6622 7.98491 13.7915L6.15011 15.6344C5.95612 15.8284 5.86721 16.2002 5.95612 16.4669L6.31177 17.5419C6.45726 18.0108 6.99072 18.2371 7.43528 18.0108Z" stroke="#292D32" stroke-width="1.21242" stroke-linecap="round" stroke-linejoin="round"/>
</svg>
