<svg width="21" height="20" viewBox="0 0 21 20" fill="none" xmlns="http://www.w3.org/2000/svg">
<path d="M14.0568 4.96782L11.5511 3.02794C11.2278 2.70463 10.5004 2.54297 10.0154 2.54297H6.94392C5.97398 2.54297 4.92321 3.27042 4.68073 4.24036L2.74085 10.1408C2.33671 11.2724 3.06416 12.2424 4.27659 12.2424H7.50971C7.99468 12.2424 8.39883 12.6465 8.318 13.2123L7.91386 15.7988C7.7522 16.5263 8.23717 17.3345 8.96462 17.577C9.61125 17.8195 10.4195 17.4962 10.7428 17.0112L14.0568 12.0807" stroke="#292D32" stroke-width="1.21242" stroke-miterlimit="10"/>
<path d="M18.179 4.96787V12.889C18.179 14.0206 17.6941 14.4248 16.5625 14.4248H15.7542C14.6226 14.4248 14.1376 14.0206 14.1376 12.889V4.96787C14.1376 3.83627 14.6226 3.43213 15.7542 3.43213H16.5625C17.6941 3.43213 18.179 3.83627 18.179 4.96787Z" stroke="#292D32" stroke-width="1.21242" stroke-linecap="round" stroke-linejoin="round"/>
</svg>
