<svg width="20" height="20" viewBox="0 0 20 20" fill="none" xmlns="http://www.w3.org/2000/svg">
<path d="M12.8415 10.1786C12.8415 11.779 11.5483 13.0723 9.94786 13.0723C8.34747 13.0723 7.05421 11.779 7.05421 10.1786C7.05421 8.57822 8.34747 7.28497 9.94786 7.28497C11.5483 7.28497 12.8415 8.57822 12.8415 10.1786Z" stroke="#292D32" stroke-width="1.21242" stroke-linecap="round" stroke-linejoin="round"/>
<path d="M9.94785 16.8633C12.8011 16.8633 15.4603 15.1821 17.3113 12.2723C18.0388 11.1326 18.0388 9.21699 17.3113 8.07731C15.4603 5.16749 12.8011 3.48627 9.94785 3.48627C7.09462 3.48627 4.43537 5.16749 2.5844 8.07731C1.85695 9.21699 1.85695 11.1326 2.5844 12.2723C4.43537 15.1821 7.09462 16.8633 9.94785 16.8633Z" stroke="#292D32" stroke-width="1.21242" stroke-linecap="round" stroke-linejoin="round"/>
</svg>
