<svg width="20" height="20" viewBox="0 0 20 20" fill="none" xmlns="http://www.w3.org/2000/svg">
<path d="M18.0307 9.89953C18.0307 5.43782 14.4096 1.81671 9.94785 1.81671C5.48613 1.81671 1.86503 5.43782 1.86503 9.89953C1.86503 14.3613 5.48613 17.9824 9.94785 17.9824" stroke="#292D32" stroke-width="1.21242" stroke-linecap="round" stroke-linejoin="round"/>
<path d="M6.71473 2.62506H7.52302C5.94687 7.34543 5.94687 12.4538 7.52302 17.1741H6.71473" stroke="#292D32" stroke-width="1.21242" stroke-linecap="round" stroke-linejoin="round"/>
<path d="M12.3727 2.62506C13.1567 4.98525 13.5528 7.44242 13.5528 9.8996" stroke="#292D32" stroke-width="1.21242" stroke-linecap="round" stroke-linejoin="round"/>
<path d="M2.67332 13.1327V12.3245C5.0335 13.1085 7.49068 13.5046 9.94786 13.5046" stroke="#292D32" stroke-width="1.21242" stroke-linecap="round" stroke-linejoin="round"/>
<path d="M2.67332 7.47484C7.39369 5.89869 12.502 5.89869 17.2224 7.47484" stroke="#292D32" stroke-width="1.21242" stroke-linecap="round" stroke-linejoin="round"/>
<path d="M14.9592 17.4974C16.3877 17.4974 17.5457 16.3394 17.5457 14.9109C17.5457 13.4824 16.3877 12.3244 14.9592 12.3244C13.5307 12.3244 12.3727 13.4824 12.3727 14.9109C12.3727 16.3394 13.5307 17.4974 14.9592 17.4974Z" stroke="#292D32" stroke-width="1.21242" stroke-linecap="round" stroke-linejoin="round"/>
<path d="M18.0307 17.9823L17.2224 17.174" stroke="#292D32" stroke-width="1.21242" stroke-linecap="round" stroke-linejoin="round"/>
</svg>
