<svg width="20" height="20" viewBox="0 0 20 20" fill="none" xmlns="http://www.w3.org/2000/svg">
<path d="M12.1488 1.81671V9.89953C12.1488 10.7886 11.4213 11.5161 10.5322 11.5161H1.64111V5.04984C1.64111 3.26354 3.08794 1.81671 4.87424 1.81671H12.1488Z" stroke="#292D32" stroke-width="1.21242" stroke-linecap="round" stroke-linejoin="round"/>
<path d="M17.8068 11.5161V13.941C17.8068 15.2827 16.7237 16.3658 15.3819 16.3658H14.5736C14.5736 15.4767 13.8462 14.7492 12.9571 14.7492C12.068 14.7492 11.3405 15.4767 11.3405 16.3658H8.10737C8.10737 15.4767 7.37992 14.7492 6.49081 14.7492C5.6017 14.7492 4.87424 15.4767 4.87424 16.3658H4.06596C2.72421 16.3658 1.64111 15.2827 1.64111 13.941V11.5161H10.5322C11.4213 11.5161 12.1488 10.7887 12.1488 9.89955V4.24158H13.636C14.218 4.24158 14.7514 4.55682 15.0424 5.05795L16.4246 7.47471H15.3819C14.9374 7.47471 14.5736 7.83843 14.5736 8.28299V10.7078C14.5736 11.1524 14.9374 11.5161 15.3819 11.5161H17.8068Z" stroke="#292D32" stroke-width="1.21242" stroke-linecap="round" stroke-linejoin="round"/>
<path d="M6.4908 17.9823C7.38361 17.9823 8.10737 17.2586 8.10737 16.3658C8.10737 15.473 7.38361 14.7492 6.4908 14.7492C5.598 14.7492 4.87424 15.473 4.87424 16.3658C4.87424 17.2586 5.598 17.9823 6.4908 17.9823Z" stroke="#292D32" stroke-width="1.21242" stroke-linecap="round" stroke-linejoin="round"/>
<path d="M12.957 17.9823C13.8499 17.9823 14.5736 17.2586 14.5736 16.3658C14.5736 15.473 13.8499 14.7492 12.957 14.7492C12.0642 14.7492 11.3405 15.473 11.3405 16.3658C11.3405 17.2586 12.0642 17.9823 12.957 17.9823Z" stroke="#292D32" stroke-width="1.21242" stroke-linecap="round" stroke-linejoin="round"/>
<path d="M17.8067 9.89952V11.5161H15.3819C14.9373 11.5161 14.5736 11.1524 14.5736 10.7078V8.28295C14.5736 7.8384 14.9373 7.47467 15.3819 7.47467H16.4246L17.8067 9.89952Z" stroke="#292D32" stroke-width="1.21242" stroke-linecap="round" stroke-linejoin="round"/>
</svg>
