<svg width="21" height="21" viewBox="0 0 21 21" fill="none" xmlns="http://www.w3.org/2000/svg">
<path d="M6.66254 15.8082L9.16821 17.7481C9.49152 18.0714 10.219 18.233 10.7039 18.233H13.7754C14.7454 18.233 15.7961 17.5056 16.0386 16.5356L17.9785 10.6352C18.3826 9.50358 17.6552 8.53364 16.4428 8.53364H13.2096C12.7247 8.53364 12.3205 8.1295 12.4013 7.5637L12.8055 4.9772C12.9671 4.24974 12.4822 3.44146 11.7547 3.19898C11.1081 2.95649 10.2998 3.2798 9.97649 3.76477L6.66254 8.6953" stroke="#292D32" stroke-width="1.21242" stroke-miterlimit="10"/>
<path d="M2.54028 15.8081V7.88693C2.54028 6.75534 3.02525 6.3512 4.15685 6.3512H4.96513C6.09672 6.3512 6.58169 6.75534 6.58169 7.88693V15.8081C6.58169 16.9397 6.09672 17.3438 4.96513 17.3438H4.15685C3.02525 17.3438 2.54028 16.9397 2.54028 15.8081Z" stroke="#292D32" stroke-width="1.21242" stroke-linecap="round" stroke-linejoin="round"/>
</svg>
