<svg width="20" height="20" viewBox="0 0 20 20" fill="none" xmlns="http://www.w3.org/2000/svg">
<path d="M13.2929 5.29233V5.04984C13.2929 3.26354 11.8461 1.81671 10.0598 1.81671C8.27345 1.81671 6.82663 3.26354 6.82663 5.04984V9.09125" stroke="#292D32" stroke-width="1.21242" stroke-linecap="round" stroke-linejoin="round"/>
<path d="M7.66722 11.6697C8.25727 12.3244 9.11405 12.7285 10.0597 12.7285C11.846 12.7285 13.2929 11.2817 13.2929 9.49539V9.09125" stroke="#292D32" stroke-width="1.21242" stroke-linecap="round" stroke-linejoin="round"/>
<path d="M5.84055 13.9005C6.94789 14.927 8.42705 15.5574 10.0598 15.5574C13.4707 15.5574 16.2431 12.785 16.2431 9.37408V8" stroke="#292D32" stroke-width="1.21242" stroke-linecap="round" stroke-linejoin="round"/>
<path d="M3.87637 8V9.37408C3.87637 10.2309 4.04611 11.0391 4.36134 11.7828" stroke="#292D32" stroke-width="1.21242" stroke-linecap="round" stroke-linejoin="round"/>
<path d="M16.5826 2.49573L3.53691 15.5495" stroke="#292D32" stroke-width="1.21242" stroke-linecap="round" stroke-linejoin="round"/>
<path d="M9.25146 2.625V5.04985" stroke="#292D32" stroke-width="1.21242" stroke-linecap="round" stroke-linejoin="round"/>
<path d="M10.0598 15.5575V17.9823" stroke="#292D32" stroke-width="1.21242" stroke-linecap="round" stroke-linejoin="round"/>
</svg>
