<svg width="21" height="20" viewBox="0 0 21 20" fill="none" xmlns="http://www.w3.org/2000/svg">
<path d="M10.3558 12.7285C12.1421 12.7285 13.589 11.2817 13.589 9.49539V5.04984C13.589 3.26354 12.1421 1.81671 10.3558 1.81671C8.56952 1.81671 7.1227 3.26354 7.1227 5.04984V9.49539C7.1227 11.2817 8.56952 12.7285 10.3558 12.7285Z" stroke="#292D32" stroke-width="1.21242" stroke-linecap="round" stroke-linejoin="round"/>
<path d="M4.17245 8V9.37408C4.17245 12.785 6.94486 15.5574 10.3558 15.5574C13.7668 15.5574 16.5392 12.785 16.5392 9.37408V8" stroke="#292D32" stroke-width="1.21242" stroke-linecap="round" stroke-linejoin="round"/>
<path d="M9.2323 5.3975C9.95976 5.13077 10.7519 5.13077 11.4793 5.3975" stroke="#292D32" stroke-width="1.21242" stroke-linecap="round" stroke-linejoin="round"/>
<path d="M9.70921 7.11099C10.1376 6.99783 10.5822 6.99783 11.0105 7.11099" stroke="#292D32" stroke-width="1.21242" stroke-linecap="round" stroke-linejoin="round"/>
<path d="M10.3558 15.5575V17.9823" stroke="#292D32" stroke-width="1.21242" stroke-linecap="round" stroke-linejoin="round"/>
</svg>
