<svg width="21" height="20" viewBox="0 0 21 20" fill="none" xmlns="http://www.w3.org/2000/svg">
<path d="M10.4441 2.7533C7.76864 2.7533 5.59436 4.92758 5.59436 7.60299V9.93892C5.59436 10.432 5.38421 11.1837 5.13364 11.604L4.20412 13.1478C3.63024 14.1016 4.02629 15.1604 5.07706 15.5161C8.56076 16.68 12.3193 16.68 15.803 15.5161C16.781 15.1928 17.2094 14.0369 16.6759 13.1478L15.7464 11.604C15.5039 11.1837 15.2937 10.432 15.2937 9.93892V7.60299C15.2937 4.93566 13.1114 2.7533 10.4441 2.7533Z" stroke="#292D32" stroke-width="1.21242" stroke-miterlimit="10" stroke-linecap="round"/>
<path d="M11.9394 2.98755C11.6888 2.91481 11.4302 2.85823 11.1634 2.8259C10.3875 2.7289 9.64385 2.78548 8.94873 2.98755C9.18313 2.38942 9.7651 1.96912 10.4441 1.96912C11.123 1.96912 11.705 2.38942 11.9394 2.98755Z" stroke="#292D32" stroke-width="1.21242" stroke-miterlimit="10" stroke-linecap="round" stroke-linejoin="round"/>
<path d="M12.8689 15.807C12.8689 17.1407 11.7777 18.2319 10.4441 18.2319C9.78128 18.2319 9.16699 17.957 8.73051 17.5206C8.29404 17.0841 8.01923 16.4698 8.01923 15.807" stroke="#292D32" stroke-width="1.21242" stroke-miterlimit="10"/>
</svg>
