<svg width="20" height="20" viewBox="0 0 20 20" fill="none" xmlns="http://www.w3.org/2000/svg">
<path d="M10.357 6.63831H6.09736C4.59395 6.63831 4.25448 7.39002 4.06858 8.31955L3.38153 11.5931H13.0809L12.3939 8.31955C12.1918 7.39002 11.8604 6.63831 10.357 6.63831Z" stroke="#292D32" stroke-width="1.21242" stroke-linecap="round" stroke-linejoin="round"/>
<path d="M14.2772 16.9359C14.3418 17.6472 13.776 18.2615 13.0486 18.2615H11.9089C11.2542 18.2615 11.1653 17.9786 11.044 17.6391L10.9228 17.2754C10.7531 16.7824 10.6399 16.4429 9.76696 16.4429H6.66316C5.79021 16.4429 5.66088 16.8228 5.50731 17.2754L5.38607 17.6391C5.27291 17.9867 5.18399 18.2615 4.5212 18.2615H3.38152C2.65407 18.2615 2.0802 17.6472 2.15294 16.9359L2.49242 13.2421C2.58133 12.3287 2.75106 11.5851 4.34338 11.5851H12.0786C13.671 11.5851 13.8407 12.3287 13.9296 13.2421L14.2772 16.9359Z" stroke="#292D32" stroke-width="1.21242" stroke-linecap="round" stroke-linejoin="round"/>
<path d="M3.37344 9.77435H2.76723" stroke="#292D32" stroke-width="1.21242" stroke-linecap="round" stroke-linejoin="round"/>
<path d="M13.679 9.77435H13.0728" stroke="#292D32" stroke-width="1.21242" stroke-linecap="round" stroke-linejoin="round"/>
<path d="M4.58586 14.0178H6.4045" stroke="#292D32" stroke-width="1.21242" stroke-linecap="round" stroke-linejoin="round"/>
<path d="M10.0418 14.0178H11.8604" stroke="#292D32" stroke-width="1.21242" stroke-linecap="round" stroke-linejoin="round"/>
<path d="M15.6674 7.54381C15.8937 7.01843 15.8129 6.30715 15.3926 5.68477C14.9804 5.0624 14.3499 4.71483 13.776 4.72292" stroke="#292D32" stroke-width="1.21242" stroke-linecap="round" stroke-linejoin="round"/>
<path d="M18.1812 8.34389C18.5207 7.12339 18.2782 5.6281 17.4133 4.33484C16.5484 3.04159 15.2552 2.24946 13.9943 2.09589" stroke="#292D32" stroke-width="1.21242" stroke-linecap="round" stroke-linejoin="round"/>
</svg>
