<svg width="20" height="20" viewBox="0 0 20 20" fill="none" xmlns="http://www.w3.org/2000/svg">
<path d="M10.02 7.34967V2.90411" stroke="#292D32" stroke-width="1.21242" stroke-linecap="round" stroke-linejoin="round"/>
<path d="M10.02 17.4532V13.0077" stroke="#292D32" stroke-width="1.21242" stroke-linecap="round" stroke-linejoin="round"/>
<path d="M8.40338 2.90411H11.6365" stroke="#292D32" stroke-width="1.21242" stroke-linecap="round" stroke-linejoin="round"/>
<path d="M8.40338 17.4532H11.6365" stroke="#292D32" stroke-width="1.21242" stroke-linecap="round" stroke-linejoin="round"/>
<path d="M7.57087 8.76416L3.72345 6.54138" stroke="#292D32" stroke-width="1.21242" stroke-linecap="round" stroke-linejoin="round"/>
<path d="M16.3165 13.816L12.4691 11.5932" stroke="#292D32" stroke-width="1.21242" stroke-linecap="round" stroke-linejoin="round"/>
<path d="M2.91516 7.93978L4.53173 5.14313" stroke="#292D32" stroke-width="1.21242" stroke-linecap="round" stroke-linejoin="round"/>
<path d="M15.5082 15.2143L17.1247 12.4177" stroke="#292D32" stroke-width="1.21242" stroke-linecap="round" stroke-linejoin="round"/>
<path d="M12.849 10.1787C12.849 10.696 12.7115 11.1728 12.4691 11.5932C11.976 12.4418 11.0627 13.0076 10.02 13.0076C8.97728 13.0076 8.06392 12.4418 7.57087 11.5932C7.32839 11.1728 7.19098 10.696 7.19098 10.1787C7.19098 9.66136 7.32839 9.18447 7.57087 8.76416C8.06392 7.91547 8.97728 7.34967 10.02 7.34967C11.0627 7.34967 11.976 7.91547 12.4691 8.76416C12.7115 9.18447 12.849 9.66136 12.849 10.1787Z" stroke="#292D32" stroke-width="1.21242" stroke-linecap="round" stroke-linejoin="round"/>
<path d="M16.3165 6.54138L12.4691 8.76416" stroke="#292D32" stroke-width="1.21242" stroke-linecap="round" stroke-linejoin="round"/>
<path d="M7.57087 11.5932L3.72345 13.816" stroke="#292D32" stroke-width="1.21242" stroke-linecap="round" stroke-linejoin="round"/>
<path d="M17.1247 7.93978L15.5082 5.14313" stroke="#292D32" stroke-width="1.21242" stroke-linecap="round" stroke-linejoin="round"/>
<path d="M4.53173 15.2143L2.91516 12.4177" stroke="#292D32" stroke-width="1.21242" stroke-linecap="round" stroke-linejoin="round"/>
</svg>
