<svg width="20" height="20" viewBox="0 0 20 20" fill="none" xmlns="http://www.w3.org/2000/svg">
<path d="M7.2059 9.89959L9.15386 11.8556L13.0579 7.94354" stroke="#292D32" stroke-width="1.21242" stroke-linecap="round" stroke-linejoin="round"/>
<path d="M9.12153 2.18048C9.67924 1.70359 10.5926 1.70359 11.1584 2.18048L12.4355 3.27974C12.678 3.4899 13.1306 3.65964 13.4539 3.65964H14.828C15.6848 3.65964 16.388 4.36284 16.388 5.21962V6.5937C16.388 6.90893 16.5577 7.36965 16.7679 7.61214L17.8671 8.88922C18.344 9.44694 18.344 10.3603 17.8671 10.9261L16.7679 12.2032C16.5577 12.4457 16.388 12.8983 16.388 13.2216V14.5957C16.388 15.4525 15.6848 16.1557 14.828 16.1557H13.4539C13.1387 16.1557 12.678 16.3254 12.4355 16.5356L11.1584 17.6348C10.6007 18.1117 9.68733 18.1117 9.12153 17.6348L7.84444 16.5356C7.60196 16.3254 7.14932 16.1557 6.82601 16.1557H5.42768C4.5709 16.1557 3.86769 15.4525 3.86769 14.5957V13.2135C3.86769 12.8983 3.69795 12.4457 3.49588 12.2032L2.4047 10.918C1.9359 10.3603 1.9359 9.45502 2.4047 8.89731L3.49588 7.61214C3.69795 7.36965 3.86769 6.91701 3.86769 6.60178V5.21154C3.86769 4.35476 4.5709 3.65155 5.42768 3.65155H6.82601C7.14124 3.65155 7.60196 3.48181 7.84444 3.27166L9.12153 2.18048Z" stroke="#292D32" stroke-width="1.21242" stroke-linecap="round" stroke-linejoin="round"/>
</svg>
