<svg width="20" height="20" viewBox="0 0 20 20" fill="none" xmlns="http://www.w3.org/2000/svg">
<path d="M10.4881 16.9845H5.3798C2.82563 16.9845 1.97694 15.2871 1.97694 13.5816V6.77585C1.97694 4.22168 2.82563 3.37299 5.3798 3.37299H10.4881C13.0423 3.37299 13.891 4.22168 13.891 6.77585V13.5816C13.891 16.1358 13.0342 16.9845 10.4881 16.9845Z" stroke="#292D32" stroke-width="1.21242" stroke-linecap="round" stroke-linejoin="round"/>
<path d="M16.138 14.301L13.891 12.7249V7.62461L16.138 6.04845C17.2373 5.28059 18.1426 5.74939 18.1426 7.09922V13.2583C18.1426 14.6082 17.2373 15.077 16.138 14.301Z" stroke="#292D32" stroke-width="1.21242" stroke-linecap="round" stroke-linejoin="round"/>
<path d="M9.65561 9.3704C10.3252 9.3704 10.868 8.82758 10.868 8.15798C10.868 7.48838 10.3252 6.94556 9.65561 6.94556C8.98601 6.94556 8.44319 7.48838 8.44319 8.15798C8.44319 8.82758 8.98601 9.3704 9.65561 9.3704Z" stroke="#292D32" stroke-width="1.21242" stroke-linecap="round" stroke-linejoin="round"/>
</svg>
