<svg width="21" height="20" viewBox="0 0 21 20" fill="none" xmlns="http://www.w3.org/2000/svg">
<path d="M11.2991 9.41333H6.4494" stroke="#292D32" stroke-width="1.21242" stroke-linecap="round" stroke-linejoin="round"/>
<path d="M2.40799 9.4133V5.67904C2.40799 4.03014 3.74166 2.69647 5.39055 2.69647H9.93309C11.582 2.69647 12.9157 3.72299 12.9157 5.37188" stroke="#292D32" stroke-width="1.21242" stroke-linecap="round" stroke-linejoin="round"/>
<path d="M14.9202 10.262C14.516 10.65 14.3221 11.2481 14.4837 11.8624C14.6858 12.6141 15.4294 13.091 16.2054 13.091H16.9571V14.2631C16.9571 16.0494 15.5102 17.4962 13.7239 17.4962H5.64112C3.85481 17.4962 2.40799 16.0494 2.40799 14.2631V8.60508C2.40799 6.81877 3.85481 5.37195 5.64112 5.37195H13.7239C15.5022 5.37195 16.9571 6.82686 16.9571 8.60508V9.77705H16.0841C15.6315 9.77705 15.2192 9.9549 14.9202 10.262Z" stroke="#292D32" stroke-width="1.21242" stroke-linecap="round" stroke-linejoin="round"/>
<path d="M18.5736 10.6017V12.2667C18.5736 12.7194 18.2018 13.0912 17.7411 13.0912H16.1811C15.3082 13.0912 14.508 12.4527 14.4352 11.5797C14.3867 11.0705 14.5807 10.5936 14.9202 10.2622C15.2192 9.95507 15.6315 9.77722 16.0841 9.77722H17.7411C18.2018 9.77722 18.5736 10.149 18.5736 10.6017Z" stroke="#292D32" stroke-width="1.21242" stroke-linecap="round" stroke-linejoin="round"/>
</svg>
