<svg width="118.999390" height="118.993652" viewBox="0 0 118.999 118.994" fill="none" xmlns="http://www.w3.org/2000/svg" xmlns:xlink="http://www.w3.org/1999/xlink">
	<desc>
			Created with Pixso.
	</desc>
	<defs>
		<radialGradient id="paint_angular_176_1122_0" cx="0.000000" cy="0.000000" r="1.000000" gradientUnits="userSpaceOnUse" gradientTransform="translate(59.5011 59.5074) rotate(90) scale(59.5 59.5)">
			<stop stop-color="#FF9416"/>
			<stop offset="1.000000" stop-color="#D9D9D9" stop-opacity="0.000000"/>
		</radialGradient>
	</defs>
	<path id="Ellipse 32" d="M118.007 70.2635C120.459 56.9764 118.429 42.7888 111.245 30.1345C104.57 18.3858 93.8958 8.82224 80.2532 3.75851C67.5938 -0.963623 53.2692 -1.42819 39.5635 3.46207C26.8304 7.98206 15.5585 16.8338 8.20276 29.3899C1.35413 41.037 -1.59082 55.0633 0.845093 69.4099C3.08533 82.7344 9.84534 95.3721 20.9332 104.796C31.2142 113.564 44.516 118.899 59.0677 118.992C72.5787 119.099 86.1984 114.637 97.4049 105.354C107.824 96.7513 115.389 84.5781 118.007 70.2635ZM75.4032 16.7927C85.1078 20.3981 93.6444 27.3058 99.1482 37.0016C104.256 46.0075 106.355 56.7864 104.328 67.7505C102.463 77.9337 97.1423 87.5402 88.542 94.6363C80.5674 101.238 70.3168 105.177 59.1674 105.085C48.8149 105.016 38.4305 101.445 29.9487 94.2072C22.0626 87.5001 16.4033 78.0892 14.558 67.0931C12.8281 56.886 14.5421 46.0392 20.1967 36.4295C25.4325 27.4985 33.7177 20.2911 44.2263 16.5643C53.978 13.0883 64.9576 12.8927 75.4032 16.7927Z" fill="url(#paint_angular_176_1122_0)" fill-opacity="1.000000" fill-rule="evenodd"/>
</svg>
