<svg width="17.191284" height="16.406738" viewBox="0 0 17.1913 16.4067" fill="none" xmlns="http://www.w3.org/2000/svg" xmlns:xlink="http://www.w3.org/1999/xlink">
	<desc>
			Created with Pixso.
	</desc>
	<defs/>
	<path id="Vector" d="M16.7278 7.4411C16.9205 7.29755 17.0635 7.09723 17.1366 6.86823C17.2098 6.63928 17.2095 6.39319 17.1357 6.16443C17.0619 5.93567 16.9185 5.73572 16.7252 5.59265C16.5321 5.44958 16.2991 5.37054 16.0587 5.36658L11.391 5.19025C11.368 5.18866 11.3461 5.18048 11.3276 5.16669C11.3093 5.15289 11.2953 5.13403 11.2874 5.11249L9.67444 0.755981C9.59338 0.534363 9.44617 0.342957 9.25269 0.207764C9.05933 0.0725098 8.82898 0 8.59302 0C8.35706 0 8.12671 0.0725098 7.93335 0.207764C7.73999 0.342957 7.59277 0.534363 7.51172 0.755981L5.90393 5.12805C5.896 5.1496 5.88196 5.16846 5.86353 5.18225C5.84521 5.19604 5.82312 5.20422 5.80017 5.20581L1.13257 5.38214C0.892212 5.38611 0.65918 5.46515 0.466064 5.60822C0.272827 5.75128 0.129395 5.95123 0.055542 6.17999C-0.0181885 6.40875 -0.0185547 6.65485 0.0546875 6.88379C0.127808 7.11273 0.270752 7.31305 0.463501 7.45667L4.125 10.3351C4.14343 10.3495 4.1571 10.369 4.16443 10.3911C4.17188 10.4132 4.17249 10.437 4.1665 10.4595L2.90625 14.9249C2.84094 15.1523 2.84729 15.3943 2.92444 15.618C3.00146 15.8417 3.14563 16.0361 3.33716 16.175C3.52869 16.3138 3.75842 16.3903 3.995 16.394C4.23145 16.3976 4.4635 16.3284 4.65918 16.1956L8.5282 13.6024C8.54724 13.5893 8.56982 13.5822 8.59302 13.5822C8.61621 13.5822 8.63879 13.5893 8.65784 13.6024L12.5269 16.1956C12.72 16.3329 12.951 16.4067 13.1881 16.4067C13.425 16.4067 13.6562 16.3329 13.8494 16.1956C14.0409 16.058 14.1852 15.8645 14.2623 15.6416C14.3394 15.4187 14.3455 15.1774 14.2798 14.9509L13.0092 10.4699C13.0024 10.4474 13.0028 10.4234 13.0103 10.4011C13.0177 10.3788 13.0317 10.3594 13.0507 10.3455L16.7278 7.4411Z" fill="#A7A7A7" fill-opacity="1.000000" fill-rule="nonzero"/>
</svg>
