<svg width="15.357361" height="15.357361" viewBox="0 0 15.3574 15.3574" fill="none" xmlns="http://www.w3.org/2000/svg" xmlns:xlink="http://www.w3.org/1999/xlink">
	<desc>
			Created with Pixso.
	</desc>
	<defs/>
	<rect id="vuesax/linear/sun" rx="7.678681" width="15.357363" height="15.357363" fill="#0560FA" fill-opacity="1.000000"/>
	<path id="Vector" d="M7.67868 1.91956L7.67868 1.91956" stroke="#FFFFFF" stroke-opacity="1.000000" stroke-width="0.959835" stroke-linejoin="round" stroke-linecap="round"/>
	<path id="Vector" d="M7.67868 9.91815L7.67868 9.91815" stroke="#FFFFFF" stroke-opacity="1.000000" stroke-width="0.959835" stroke-linejoin="round" stroke-linecap="round"/>
	<path id="Vector" d="M6.3989 1.91956L8.95847 1.91956" stroke="#FFFFFF" stroke-opacity="1.000000" stroke-width="0.959835" stroke-linejoin="round" stroke-linecap="round"/>
	<path id="Vector" d="M6.3989 13.4376L8.95847 13.4376" stroke="#FFFFFF" stroke-opacity="1.000000" stroke-width="0.959835" stroke-linejoin="round" stroke-linecap="round"/>
	<path id="Vector" d="M5.73978 6.55878L2.69391 4.79907" stroke="#FFFFFF" stroke-opacity="1.000000" stroke-width="0.959835" stroke-linejoin="round" stroke-linecap="round"/>
	<path id="Vector" d="M12.6634 10.558L9.61755 8.79834" stroke="#FFFFFF" stroke-opacity="1.000000" stroke-width="0.959835" stroke-linejoin="round" stroke-linecap="round"/>
	<path id="Vector" d="M2.05408 5.90601L3.33386 3.69202" stroke="#FFFFFF" stroke-opacity="1.000000" stroke-width="0.959835" stroke-linejoin="round" stroke-linecap="round"/>
	<path id="Vector" d="M12.0235 11.665L13.3033 9.45105" stroke="#FFFFFF" stroke-opacity="1.000000" stroke-width="0.959835" stroke-linejoin="round" stroke-linecap="round"/>
	<path id="Vector" d="M9.61758 8.7984C9.22723 9.47028 8.50415 9.91821 7.67871 9.91821C6.85324 9.91821 6.13016 9.47028 5.73984 8.7984C5.54788 8.46564 5.43909 8.08813 5.43909 7.67859C5.43909 7.26904 5.54788 6.89154 5.73984 6.55878C6.13016 5.8869 6.85324 5.43896 7.67871 5.43896C8.50415 5.43896 9.22723 5.8869 9.61758 6.55878C9.80954 6.89154 9.9183 7.26904 9.9183 7.67859C9.9183 8.08813 9.80954 8.46564 9.61758 8.7984Z" stroke="#FFFFFF" stroke-opacity="1.000000" stroke-width="0.959835" stroke-linejoin="round"/>
	<path id="Vector" d="M12.6634 4.79907L9.61755 6.55878" stroke="#FFFFFF" stroke-opacity="1.000000" stroke-width="0.959835" stroke-linejoin="round" stroke-linecap="round"/>
	<path id="Vector" d="M5.73978 8.79834L2.69391 10.558" stroke="#FFFFFF" stroke-opacity="1.000000" stroke-width="0.959835" stroke-linejoin="round" stroke-linecap="round"/>
	<path id="Vector" d="M13.3033 5.90601L12.0235 3.69202" stroke="#FFFFFF" stroke-opacity="1.000000" stroke-width="0.959835" stroke-linejoin="round" stroke-linecap="round"/>
	<path id="Vector" d="M3.33386 11.665L2.05408 9.45105" stroke="#FFFFFF" stroke-opacity="1.000000" stroke-width="0.959835" stroke-linejoin="round" stroke-linecap="round"/>
	<g opacity="0.000000">
		<path id="Vector" d="M15.3574 0L15.3574 15.3574L0 15.3574L0 0L15.3574 0Z" stroke="#FFFFFF" stroke-opacity="1.000000" stroke-width="0.639890"/>
	</g>
</svg>
