<svg width="24" height="25" viewBox="0 0 24 25" fill="none" xmlns="http://www.w3.org/2000/svg">
<path d="M2 22.5H22" stroke="#0560FA" stroke-width="1.5" stroke-miterlimit="10" stroke-linecap="round" stroke-linejoin="round"/>
<path d="M2.95 22.5L3 10.47C3 9.85999 3.29 9.28004 3.77 8.90004L10.77 3.45003C11.49 2.89003 12.5 2.89003 13.23 3.45003L20.23 8.89003C20.72 9.27003 21 9.84999 21 10.47V22.5" fill="#0560FA"/>
<path d="M2.95 22.5L3 10.47C3 9.85999 3.29 9.28004 3.77 8.90004L10.77 3.45003C11.49 2.89003 12.5 2.89003 13.23 3.45003L20.23 8.89003C20.72 9.27003 21 9.84999 21 10.47V22.5" stroke="#0560FA" stroke-width="1.5" stroke-miterlimit="10" stroke-linejoin="round"/>
<path d="M15.5 11.5H8.5C7.67 11.5 7 12.17 7 13V22.5H17V13C17 12.17 16.33 11.5 15.5 11.5Z" fill="#0560FA" stroke="#0560FA" stroke-width="1.5" stroke-miterlimit="10" stroke-linecap="round" stroke-linejoin="round"/>
<path d="M10 16.75V18.25" stroke="white" stroke-width="1.5" stroke-miterlimit="10" stroke-linecap="round" stroke-linejoin="round"/>
<path d="M10.5 8H13.5" stroke="white" stroke-width="1.5" stroke-miterlimit="10" stroke-linecap="round" stroke-linejoin="round"/>
</svg>
