<svg width="20" height="20" viewBox="0 0 20 20" fill="none" xmlns="http://www.w3.org/2000/svg">
<path d="M17.8068 6.58173C17.8068 7.11519 17.3703 7.55167 16.8368 7.55167H2.61105C2.07759 7.55167 1.64111 7.11519 1.64111 6.58173V6.57364C1.64111 4.72268 3.13644 3.22736 4.9874 3.22736H14.4524C16.3034 3.22736 17.8068 4.73076 17.8068 6.58173Z" fill="#292D32"/>
<path d="M1.64111 9.7341V13.7836C1.64111 15.6346 3.13644 17.1299 4.9874 17.1299H14.4524C16.3034 17.1299 17.8068 15.6265 17.8068 13.7755V9.7341C17.8068 9.20063 17.3703 8.76416 16.8368 8.76416H2.61105C2.07759 8.76416 1.64111 9.20063 1.64111 9.7341ZM6.49081 14.4221H4.87424C4.54285 14.4221 4.26803 14.1473 4.26803 13.8159C4.26803 13.4845 4.54285 13.2097 4.87424 13.2097H6.49081C6.8222 13.2097 7.09702 13.4845 7.09702 13.8159C7.09702 14.1473 6.8222 14.4221 6.49081 14.4221ZM11.7446 14.4221H8.51151C8.18012 14.4221 7.9053 14.1473 7.9053 13.8159C7.9053 13.4845 8.18012 13.2097 8.51151 13.2097H11.7446C12.076 13.2097 12.3509 13.4845 12.3509 13.8159C12.3509 14.1473 12.076 14.4221 11.7446 14.4221Z" fill="#292D32"/>
</svg>
