<svg width="21" height="20" viewBox="0 0 21 20" fill="none" xmlns="http://www.w3.org/2000/svg">
<path d="M13.224 15.5052C12.9007 15.5052 12.634 15.2385 12.634 14.9151C12.634 14.5918 12.9007 14.3251 13.224 14.3251C15.5034 14.3251 17.3625 12.466 17.3625 10.1867C17.3625 7.90733 15.5034 6.04828 13.224 6.04828C10.9447 6.04828 9.08564 7.90733 9.08564 10.1867C9.08564 10.51 8.81891 10.7767 8.49559 10.7767C8.17228 10.7767 7.90555 10.51 7.90555 10.1867C7.90555 7.25262 10.29 4.86011 13.2321 4.86011C16.1743 4.86011 18.5506 7.24454 18.5506 10.1786C18.5506 13.1127 16.1662 15.5052 13.224 15.5052Z" fill="#292D32"/>
<path d="M7.71156 4.85223C8.03487 4.85223 8.3016 5.11897 8.3016 5.44228C8.3016 5.76559 8.03487 6.03233 7.71156 6.03233C5.4322 6.03233 3.57315 7.89137 3.57315 10.1707C3.57315 12.4501 5.4322 14.3091 7.71156 14.3091C9.99091 14.3091 11.85 12.4501 11.85 10.1707C11.85 9.84742 12.1167 9.58069 12.44 9.58069C12.7633 9.58069 13.0301 9.84742 13.0301 10.1707C13.0301 13.1048 10.6456 15.4973 7.70348 15.4973C4.76133 15.4973 2.38498 13.1129 2.38498 10.1788C2.38498 7.24475 4.76941 4.85223 7.71156 4.85223Z" fill="#292D32"/>
</svg>
