<svg width="20" height="20" viewBox="0 0 20 20" fill="none" xmlns="http://www.w3.org/2000/svg">
<path d="M12.9243 10.1985H16.7151C16.6504 13.9732 15.9068 14.5956 13.5871 15.9697C13.3203 16.1313 13.2314 16.4708 13.3931 16.7456C13.5547 17.0124 13.8942 17.1013 14.169 16.9396C16.901 15.323 17.8548 14.3369 17.8548 9.63274V5.2761C17.8548 3.89393 16.7313 2.7785 15.3572 2.7785H12.9323C11.5098 2.7785 10.4348 3.85352 10.4348 5.2761V7.70094C10.4267 9.12352 11.5017 10.1985 12.9243 10.1985Z" fill="#292D32"/>
<path d="M4.17864 10.1985H7.96948C7.90482 13.9732 7.1612 14.5956 4.84143 15.9697C4.5747 16.1313 4.48578 16.4708 4.64744 16.7456C4.8091 17.0124 5.14858 17.1013 5.42339 16.9396C8.15539 15.323 9.10916 14.3369 9.10916 9.63274V5.2761C9.10916 3.89393 7.98565 2.7785 6.61157 2.7785H4.18672C2.75606 2.7785 1.68105 3.85352 1.68105 5.2761V7.70094C1.68105 9.12352 2.75606 10.1985 4.17864 10.1985Z" fill="#292D32"/>
</svg>
