<svg width="21" height="20" viewBox="0 0 21 20" fill="none" xmlns="http://www.w3.org/2000/svg">
<path d="M7.30742 9.60043H3.51657C3.58124 5.82575 4.32486 5.20337 6.64463 3.82929C6.91136 3.66764 7.00027 3.32816 6.83861 3.05334C6.68504 2.78661 6.33748 2.6977 6.07075 2.85936C3.33875 4.47592 2.38498 5.46202 2.38498 10.1581V14.5148C2.38498 15.8969 3.50849 17.0124 4.88257 17.0124H7.30742C8.72999 17.0124 9.80501 15.9374 9.80501 14.5148V12.0899C9.80501 10.6754 8.72999 9.60043 7.30742 9.60043Z" fill="#292D32"/>
<path d="M16.053 9.60043H12.2622C12.3268 5.82575 13.0705 5.20337 15.3902 3.82929C15.657 3.66764 15.7459 3.32816 15.5842 3.05334C15.4226 2.78661 15.0831 2.6977 14.8083 2.85936C12.0763 4.47592 11.1225 5.46202 11.1225 10.1662V14.5229C11.1225 15.905 12.246 17.0205 13.6201 17.0205H16.0449C17.4675 17.0205 18.5425 15.9454 18.5425 14.5229V12.098C18.5506 10.6754 17.4756 9.60043 16.053 9.60043Z" fill="#292D32"/>
</svg>
