<svg width="20" height="20" viewBox="0 0 20 20" fill="none" xmlns="http://www.w3.org/2000/svg">
<path d="M17.4463 4.44362H2.89723C2.56583 4.44362 2.29102 4.16881 2.29102 3.83741C2.29102 3.50602 2.56583 3.2312 2.89723 3.2312H17.4463C17.7777 3.2312 18.0525 3.50602 18.0525 3.83741C18.0525 4.16881 17.7777 4.44362 17.4463 4.44362Z" fill="#292D32"/>
<path d="M17.4463 8.48507H2.89723C2.56583 8.48507 2.29102 8.21025 2.29102 7.87886C2.29102 7.54746 2.56583 7.27264 2.89723 7.27264H17.4463C17.7777 7.27264 18.0525 7.54746 18.0525 7.87886C18.0525 8.21025 17.7777 8.48507 17.4463 8.48507Z" fill="#292D32"/>
<path d="M17.4463 12.5264H2.89723C2.56583 12.5264 2.29102 12.2516 2.29102 11.9202C2.29102 11.5888 2.56583 11.314 2.89723 11.314H17.4463C17.7777 11.314 18.0525 11.5888 18.0525 11.9202C18.0525 12.2516 17.7777 12.5264 17.4463 12.5264Z" fill="#292D32"/>
<path d="M17.4463 16.5679H2.89723C2.56583 16.5679 2.29102 16.2931 2.29102 15.9617C2.29102 15.6303 2.56583 15.3555 2.89723 15.3555H17.4463C17.7777 15.3555 18.0525 15.6303 18.0525 15.9617C18.0525 16.2931 17.7777 16.5679 17.4463 16.5679Z" fill="#292D32"/>
</svg>
