<svg width="20" height="20" viewBox="0 0 20 20" fill="none" xmlns="http://www.w3.org/2000/svg">
<path d="M17.9586 10.4007V12.0658C17.9586 12.5184 17.5867 12.8903 17.126 12.8903H15.566C14.6931 12.8903 13.8929 12.2517 13.8201 11.3788C13.7717 10.8695 13.9656 10.3927 14.3051 10.0613C14.6042 9.75412 15.0164 9.57629 15.469 9.57629H17.126C17.5867 9.57629 17.9586 9.9481 17.9586 10.4007Z" fill="#292D32"/>
<path d="M12.6078 11.4837C12.535 10.635 12.8422 9.80248 13.4565 9.19627C13.9738 8.67088 14.6931 8.36374 15.4691 8.36374H15.9298C16.1561 8.36374 16.342 8.17783 16.3097 7.95151C16.0914 6.38344 14.7335 5.17102 13.1089 5.17102H5.02607C3.23976 5.17102 1.79294 6.61785 1.79294 8.40415V14.0621C1.79294 15.8484 3.23976 17.2953 5.02607 17.2953H13.1089C14.7416 17.2953 16.0914 16.0828 16.3097 14.5148C16.342 14.2884 16.1561 14.1025 15.9298 14.1025H15.5661C14.0303 14.1025 12.7371 12.9548 12.6078 11.4837ZM10.684 9.81864H5.83435C5.50295 9.81864 5.22814 9.55191 5.22814 9.21243C5.22814 8.87295 5.50295 8.60622 5.83435 8.60622H10.684C11.0154 8.60622 11.2903 8.88104 11.2903 9.21243C11.2903 9.54383 11.0154 9.81864 10.684 9.81864Z" fill="#292D32"/>
<path d="M11.6621 3.4172C11.8722 3.63544 11.6863 3.95875 11.3792 3.95875H5.05033C4.1693 3.95875 3.34486 4.2174 2.65782 4.66196C2.34259 4.86403 1.9142 4.64579 2.06777 4.29823C2.52041 3.23938 3.57926 2.50385 4.79976 2.50385H9.34231C10.2799 2.50385 11.1124 2.83524 11.6621 3.4172Z" fill="#292D32"/>
</svg>
